<?xml version="1.0" encoding="UTF-8"?>
<svg width="347px" height="50px" viewBox="0 0 347 50" version="1.1" xmlns="http://www.w3.org/2000/svg" xmlns:xlink="http://www.w3.org/1999/xlink">
    <title>monCVparfait Copy 3</title>
    <g id="FINAL" stroke="none" stroke-width="1" fill="none" fill-rule="evenodd">
        <g id="monCVparfait-Copy-3" fill-rule="nonzero">
            <path d="M14.6428364,39.3467337 L14.6428364,37.3869347 C13.6029099,37.319933 12.9152166,37.1691792 12.5797564,36.9346734 C12.2442962,36.7001675 12.0765661,36.1976549 12.0765661,35.4271357 L12.0765661,35.4271357 L12.0765661,18.3417085 C13.5525909,17.5711893 14.8944316,17.1859296 16.1020882,17.1859296 C17.1755607,17.1859296 17.9387326,17.4706868 18.3916038,18.040201 C18.8444751,18.6097152 19.0709107,19.4639866 19.0709107,20.6030151 L19.0709107,20.6030151 L19.0709107,35.4271357 C19.0709107,36.1976549 18.9115671,36.7001675 18.5928799,36.9346734 C18.2741928,37.1691792 17.5948859,37.319933 16.5549594,37.3869347 L16.5549594,37.3869347 L16.5549594,39.3467337 L30.8958817,39.3467337 L30.8958817,37.3869347 C29.8559551,37.319933 29.1766483,37.1691792 28.8579611,36.9346734 C28.539274,36.7001675 28.3799304,36.1976549 28.3799304,35.4271357 L28.3799304,35.4271357 L28.3799304,18.3417085 C29.9901392,17.5711893 31.3152069,17.1859296 32.3551334,17.1859296 C33.462152,17.1859296 34.2420969,17.4706868 34.6949681,18.040201 C35.1478393,18.6097152 35.3742749,19.4639866 35.3742749,20.6030151 L35.3742749,20.6030151 L35.3742749,35.4271357 C35.3742749,36.1976549 35.2149314,36.7001675 34.8962442,36.9346734 C34.577557,37.1691792 33.8982502,37.319933 32.8583237,37.3869347 L32.8583237,37.3869347 L32.8583237,39.3467337 L47.4508411,39.3467337 L47.4508411,37.3869347 C46.3773685,37.319933 45.6477427,37.1691792 45.2619635,36.9346734 C44.8761843,36.7001675 44.6832947,36.1976549 44.6832947,35.4271357 L44.6832947,35.4271357 L44.6832947,19.7487437 C44.6832947,17.1356784 44.0543068,15.1507538 42.7963312,13.7939698 C41.5383556,12.4371859 39.7352572,11.758794 37.387036,11.758794 C33.56279,11.758794 30.4933295,13.5008375 28.1786543,16.9849246 C27.507734,13.5008375 25.1762858,11.758794 21.1843097,11.758794 C17.4607019,11.758794 14.4247873,13.4673367 12.0765661,16.8844221 L12.0765661,16.8844221 L12.2778422,11.758794 L10.5669954,11.758794 L0.0503190255,14.6733668 L0.0503190255,16.080402 L2.81786543,17.7889447 L2.81786543,35.4271357 C2.81786543,36.1976549 2.62497583,36.7001675 2.23919664,36.9346734 C1.85341744,37.1691792 1.10701856,37.319933 -1.13840157e-13,37.3869347 L-1.13840157e-13,37.3869347 L-1.13840157e-13,39.3467337 L14.6428364,39.3467337 Z M62.99942,39.8492462 C67.12558,39.8492462 70.5053413,38.4757119 73.1387036,35.7286432 C75.7720659,32.9815745 77.0887471,29.4974874 77.0887471,25.2763819 C77.0887471,21.1892797 75.7972254,17.9145729 73.2141821,15.4522613 C70.6311388,12.9899497 67.2429911,11.758794 63.049739,11.758794 C58.9235789,11.758794 55.5438177,13.1323283 52.9104553,15.879397 C50.277093,18.6264657 48.9604118,22.1105528 48.9604118,26.3316583 C48.9604118,30.4187605 50.2519335,33.6934673 52.8349768,36.1557789 C55.4180201,38.6180905 58.8061678,39.8492462 62.99942,39.8492462 Z M63.2510151,37.7386935 C60.2989656,37.7386935 58.8229408,33.19933 58.8229408,24.120603 C58.8229408,20.7370184 59.124855,18.1825796 59.7286833,16.4572864 C60.3325116,14.7319933 61.3556651,13.8693467 62.7981439,13.8693467 C65.7501933,13.8693467 67.2262181,18.4087102 67.2262181,27.4874372 C67.2262181,30.8710218 66.9243039,33.4254606 66.3204756,35.1507538 C65.7166473,36.8760469 64.6934938,37.7386935 63.2510151,37.7386935 Z M94.0462587,39.3467337 L94.0462587,37.3869347 C92.9727862,37.319933 92.2515468,37.1691792 91.8825406,36.9346734 C91.5135344,36.7001675 91.3290313,36.1976549 91.3290313,35.4271357 L91.3290313,35.4271357 L91.3290313,18.3417085 C92.8050561,17.6046901 94.2475348,17.2361809 95.6564675,17.2361809 C96.8976701,17.2361809 97.7698666,17.5293132 98.2730568,18.1155779 C98.7762471,18.7018425 99.0278422,19.5812395 99.0278422,20.7537688 L99.0278422,20.7537688 L99.0278422,35.4271357 C99.0278422,36.1976549 98.8517256,36.7001675 98.4994925,36.9346734 C98.1472593,37.1691792 97.4344064,37.319933 96.3609339,37.3869347 L96.3609339,37.3869347 L96.3609339,39.3467337 L111.154727,39.3467337 L111.154727,37.3869347 C110.047709,37.319933 109.30131,37.1691792 108.915531,36.9346734 C108.529752,36.7001675 108.336862,36.1976549 108.336862,35.4271357 L108.336862,35.4271357 L108.336862,20 C108.336862,17.2529313 107.682715,15.1926298 106.37442,13.8190955 C105.066125,12.4455611 103.170775,11.758794 100.68837,11.758794 C97.0989462,11.758794 93.9791667,13.4338358 91.3290313,16.7839196 L91.3290313,16.7839196 L91.5303074,11.758794 L89.8194606,11.758794 L79.3027842,14.6733668 L79.3027842,16.080402 L82.0703306,17.7889447 L82.0703306,35.4271357 C82.0703306,36.1976549 81.877441,36.7001675 81.4916618,36.9346734 C81.1058826,37.1691792 80.3594838,37.319933 79.2524652,37.3869347 L79.2524652,37.3869347 L79.2524652,39.3467337 L94.0462587,39.3467337 Z M131.433295,39.8492462 C136.565835,39.8492462 140.675222,38.760469 143.761456,36.5829146 L143.761456,36.5829146 L144.616879,26.5829146 L142.100928,26.5829146 C140.222351,33.6515913 137.085799,37.1859296 132.69127,37.1859296 C129.672129,37.1859296 127.349067,35.720268 125.722085,32.7889447 C124.095103,29.8576214 123.281613,26.0134003 123.281613,21.2562814 C123.281613,16.7336683 124.019625,13.0737018 125.49565,10.2763819 C126.971674,7.47906198 129.202485,6.08040201 132.18808,6.08040201 C136.616154,6.08040201 139.484339,9.16247906 140.792633,15.3266332 L140.792633,15.3266332 L143.258266,15.3266332 L143.107309,6.53266332 C140.121713,4.5561139 136.381332,3.5678392 131.886166,3.5678392 C126.485257,3.5678392 121.964931,5.30988275 118.325189,8.79396985 C114.685446,12.278057 112.865574,16.9011725 112.865574,22.6633166 C112.865574,27.9564489 114.526102,32.1440536 117.847158,35.2261307 C121.168213,38.3082077 125.696926,39.8492462 131.433295,39.8492462 Z M166.203741,39.5477387 L179.085412,8.04020101 C179.487964,7.00167504 180.477572,6.38190955 182.054234,6.18090452 L182.054234,6.18090452 L182.054234,4.07035176 L171.587877,4.07035176 L171.587877,6.18090452 C173.063902,6.21440536 174.045123,6.39028476 174.53154,6.70854271 C175.017957,7.02680067 175.261166,7.5879397 175.261166,8.3919598 C175.261166,8.79396985 175.076663,9.4639866 174.707657,10.4020101 L174.707657,10.4020101 L168.216502,27.1356784 L160.467372,10.4020101 C160.131912,9.63149079 159.964182,8.94472362 159.964182,8.34170854 C159.964182,7.57118928 160.207391,7.02680067 160.693808,6.70854271 C161.180225,6.39028476 162.161446,6.21440536 163.637471,6.18090452 L163.637471,6.18090452 L163.637471,4.07035176 L145.774217,4.07035176 L145.774217,6.18090452 C146.579321,6.28140704 147.191536,6.44891122 147.610861,6.68341709 C148.030187,6.91792295 148.390806,7.37018425 148.69272,8.04020101 L148.69272,8.04020101 L163.385876,39.5477387 L166.203741,39.5477387 Z" id="monCV" fill="#002D6B"></path>
            <path d="M197.049304,50 L197.049304,48.040201 C195.439095,47.9061977 194.390782,47.721943 193.904365,47.4874372 C193.417948,47.2529313 193.174739,46.7169179 193.174739,45.879397 L193.174739,45.879397 L193.174739,38.7939698 C194.013389,39.4974874 195.472641,39.8492462 197.552494,39.8492462 C201.7122,39.8492462 205.125508,38.4757119 207.792416,35.7286432 C210.459324,32.9815745 211.792778,29.1122278 211.792778,24.120603 C211.792778,20.1340034 210.870263,17.0770519 209.025232,14.9497487 C207.180201,12.8224456 204.714569,11.758794 201.628335,11.758794 C199.682666,11.758794 197.996979,12.2361809 196.571273,13.1909548 C195.145567,14.1457286 194.013389,15.2931323 193.174739,16.6331658 L193.174739,16.6331658 L193.376015,11.758794 L191.614849,11.758794 L181.098173,14.6733668 L181.098173,16.080402 L183.865719,17.7889447 L183.865719,46.080402 C183.865719,46.8509213 183.67283,47.3534338 183.28705,47.5879397 C182.901271,47.8224456 182.154872,47.9731993 181.047854,48.040201 L181.047854,48.040201 L181.047854,50 L197.049304,50 Z M196.74739,37.4874372 C194.365623,37.4874372 193.174739,35.7286432 193.174739,32.2110553 L193.174739,32.2110553 L193.174739,18.0904523 C194.013389,17.520938 195.002997,17.2361809 196.143561,17.2361809 C198.122776,17.2361809 199.64912,18.040201 200.722593,19.6482412 C201.796065,21.2562814 202.332802,23.6850921 202.332802,26.9346734 C202.332802,30.0167504 201.837998,32.5460637 200.84839,34.5226131 C199.858783,36.4991625 198.491783,37.4874372 196.74739,37.4874372 Z M234.184745,39.8492462 C236.801334,39.8492462 239.015371,38.9447236 240.826856,37.1356784 L240.826856,37.1356784 L240.474623,35.7788945 C240.004979,35.9798995 239.434696,36.080402 238.763776,36.080402 C237.858034,36.080402 237.405162,35.3266332 237.405162,33.8190955 L237.405162,33.8190955 L237.405162,20.5025126 C237.405162,17.3534338 236.449101,15.1088777 234.536978,13.7688442 C232.624855,12.4288107 229.823763,11.758794 226.133701,11.758794 C222.913283,11.758794 220.30508,12.3283082 218.309092,13.4673367 C216.313104,14.6063652 215.31511,16.2646566 215.31511,18.4422111 C215.31511,20.2177554 216.136988,21.3902848 217.780742,21.959799 L217.780742,21.959799 L223.366154,21.2060302 C223.06424,19.7654941 222.913283,18.5929648 222.913283,17.6884422 C222.913283,15.041876 223.819026,13.718593 225.63051,13.718593 C227.374903,13.718593 228.2471,15.0083752 228.2471,17.5879397 L228.2471,17.5879397 L228.2471,22.7135678 L220.246375,25.5276382 C218.166522,26.2646566 216.53954,27.1859296 215.365429,28.2914573 C214.191319,29.3969849 213.604263,30.9547739 213.604263,32.9648241 C213.604263,35.0753769 214.266797,36.7252931 215.591865,37.9145729 C216.916933,39.1038526 218.652939,39.6984925 220.799884,39.6984925 C223.986756,39.6984925 226.51948,38.3417085 228.398057,35.6281407 C228.767063,36.9681742 229.463143,38.0067002 230.486296,38.7437186 C231.50945,39.480737 232.742266,39.8492462 234.184745,39.8492462 Z M226.033063,34.8743719 C223.718387,34.8743719 222.56105,33.3835846 222.56105,30.4020101 C222.56105,29.0619765 222.804259,28.0737018 223.290676,27.4371859 C223.777093,26.80067 224.506719,26.2981575 225.479553,25.9296482 L225.479553,25.9296482 L228.2471,24.8743719 L228.2471,34.1708543 C227.408449,34.639866 226.670437,34.8743719 226.033063,34.8743719 Z M257.885006,39.3467337 L257.885006,37.3869347 C256.274797,37.1859296 255.201324,36.9346734 254.664588,36.6331658 C254.127852,36.3316583 253.859484,35.678392 253.859484,34.6733668 L253.859484,34.6733668 L253.859484,21.4070352 C254.89941,20.6365159 256.056748,20.1423786 257.331497,19.9246231 C258.606245,19.7068677 260.216454,19.5979899 262.162123,19.5979899 L262.162123,19.5979899 L263.36978,19.5979899 L263.36978,12.6130653 C262.799497,12.0435511 261.960847,11.758794 260.853828,11.758794 C259.243619,11.758794 257.935325,12.319933 256.928944,13.4422111 C255.922564,14.5644891 254.89941,16.5829146 253.859484,19.4974874 L253.859484,19.4974874 L254.06076,11.758794 L252.349913,11.758794 L241.833237,14.6733668 L241.833237,16.080402 L244.600783,17.7889447 L244.600783,35.4271357 C244.600783,36.1976549 244.407893,36.7001675 244.022114,36.9346734 C243.636335,37.1691792 242.889936,37.319933 241.782918,37.3869347 L241.782918,37.3869347 L241.782918,39.3467337 L257.885006,39.3467337 Z M280.931119,39.3467337 L280.931119,37.3869347 C279.320911,37.1859296 278.247438,36.9346734 277.710702,36.6331658 C277.173966,36.3316583 276.905597,35.678392 276.905597,34.6733668 L276.905597,34.6733668 L276.905597,14.9748744 L282.792923,14.9748744 L282.792923,12.2613065 L276.905597,12.2613065 L276.905597,5.72864322 C276.905597,3.38358459 277.626837,2.21105528 279.069316,2.21105528 C280.276972,2.21105528 280.8808,3.36683417 280.8808,5.67839196 C280.8808,6.48241206 280.796935,7.26968174 280.629205,8.04020101 L280.629205,8.04020101 L285.359194,8.04020101 C286.600396,7.40368509 287.220998,6.34840871 287.220998,4.87437186 C287.220998,1.62479062 284.621181,0 279.421549,0 C275.932763,0 273.098125,0.929648241 270.917633,2.78894472 C268.737142,4.64824121 267.646897,7.40368509 267.646897,11.0552764 L267.646897,11.0552764 L267.646897,12.0100503 L264.023927,12.9648241 L264.023927,14.9748744 L267.646897,14.9748744 L267.646897,35.4271357 C267.646897,36.1976549 267.454007,36.7001675 267.068228,36.9346734 C266.682449,37.1691792 265.93605,37.319933 264.829031,37.3869347 L264.829031,37.3869347 L264.829031,39.3467337 L280.931119,39.3467337 Z M304.027552,39.8492462 C306.644142,39.8492462 308.858179,38.9447236 310.669664,37.1356784 L310.669664,37.1356784 L310.31743,35.7788945 C309.847786,35.9798995 309.277504,36.080402 308.606584,36.080402 C307.700841,36.080402 307.24797,35.3266332 307.24797,33.8190955 L307.24797,33.8190955 L307.24797,20.5025126 C307.24797,17.3534338 306.291908,15.1088777 304.379785,13.7688442 C302.467662,12.4288107 299.66657,11.758794 295.976508,11.758794 C292.75609,11.758794 290.147888,12.3283082 288.1519,13.4673367 C286.155912,14.6063652 285.157918,16.2646566 285.157918,18.4422111 C285.157918,20.2177554 285.979795,21.3902848 287.62355,21.959799 L287.62355,21.959799 L293.208962,21.2060302 C292.907048,19.7654941 292.75609,18.5929648 292.75609,17.6884422 C292.75609,15.041876 293.661833,13.718593 295.473318,13.718593 C297.217711,13.718593 298.089907,15.0083752 298.089907,17.5879397 L298.089907,17.5879397 L298.089907,22.7135678 L290.089182,25.5276382 C288.009329,26.2646566 286.382347,27.1859296 285.208237,28.2914573 C284.034126,29.3969849 283.447071,30.9547739 283.447071,32.9648241 C283.447071,35.0753769 284.109605,36.7252931 285.434672,37.9145729 C286.75974,39.1038526 288.495746,39.6984925 290.642691,39.6984925 C293.829563,39.6984925 296.362287,38.3417085 298.240864,35.6281407 C298.60987,36.9681742 299.30595,38.0067002 300.329104,38.7437186 C301.352257,39.480737 302.585073,39.8492462 304.027552,39.8492462 Z M295.87587,34.8743719 C293.561195,34.8743719 292.403857,33.3835846 292.403857,30.4020101 C292.403857,29.0619765 292.647066,28.0737018 293.133483,27.4371859 C293.6199,26.80067 294.349526,26.2981575 295.322361,25.9296482 L295.322361,25.9296482 L298.089907,24.8743719 L298.089907,34.1708543 C297.251257,34.639866 296.513244,34.8743719 295.87587,34.8743719 Z M319.173579,9.54773869 C320.649604,9.54773869 321.840487,9.09547739 322.74623,8.19095477 C323.651972,7.28643216 324.104843,6.18090452 324.104843,4.87437186 C324.104843,3.5678392 323.651972,2.47068677 322.74623,1.58291457 C321.840487,0.695142379 320.649604,0.251256281 319.173579,0.251256281 C317.664008,0.251256281 316.464738,0.695142379 315.575769,1.58291457 C314.686799,2.47068677 314.242314,3.5678392 314.242314,4.87437186 C314.242314,6.18090452 314.686799,7.28643216 315.575769,8.19095477 C316.464738,9.09547739 317.664008,9.54773869 319.173579,9.54773869 Z M326.520157,39.3467337 L326.520157,37.3869347 C325.413138,37.319933 324.666739,37.1691792 324.28096,36.9346734 C323.895181,36.7001675 323.702291,36.1976549 323.702291,35.4271357 L323.702291,35.4271357 L323.702291,11.758794 L322.142401,11.758794 L311.676044,14.6733668 L311.676044,16.080402 L314.44359,17.7889447 L314.44359,35.4271357 C314.44359,36.1976549 314.250701,36.7001675 313.864922,36.9346734 C313.479142,37.1691792 312.732744,37.319933 311.625725,37.3869347 L311.625725,37.3869347 L311.625725,39.3467337 L326.520157,39.3467337 Z M338.24449,39.8492462 C342.068735,39.8492462 344.987239,38.2077052 347,34.9246231 L347,34.9246231 L346.245215,33.8190955 C344.970466,34.6566164 343.762809,35.0753769 342.622245,35.0753769 C340.710122,35.0753769 339.75406,33.919598 339.75406,31.6080402 L339.75406,31.6080402 L339.75406,14.9748744 L345.641386,14.9748744 L345.641386,12.2613065 L339.75406,12.2613065 L339.75406,5.42713568 L337.791618,5.42713568 C334.940207,9.17922948 331.518513,11.8090452 327.526537,13.3165829 L327.526537,13.3165829 L327.526537,14.9748744 L330.394722,14.9748744 L330.394722,31.6080402 C330.394722,34.4556114 331.090801,36.5410385 332.482961,37.8643216 C333.875121,39.1876047 335.79563,39.8492462 338.24449,39.8492462 Z" id="parfait" fill="#FF3D3C"></path>
        </g>
    </g>
</svg>